<svg
  width="21"
  height="21"
  viewBox="0 0 21 21"
  fill="none"
  xmlns="http://www.w3.org/2000/svg"
>
  <path
    d="M14.9824 21C14.7034 21 14.4358 20.8893 14.2386 20.6922C14.0413 20.4951 13.9304 20.2278 13.9304 19.9491V17.2167C13.9631 16.9025 13.9294 16.5848 13.8316 16.2843C13.7337 15.9838 13.5739 15.7072 13.3623 15.4722C13.2314 15.3304 13.142 15.1552 13.1042 14.9659C13.0663 14.7766 13.0813 14.5806 13.1476 14.3993C13.2139 14.218 13.3289 14.0585 13.48 13.9382C13.631 13.8178 13.8124 13.7414 14.0041 13.7172C16.571 13.4125 18.938 12.5928 18.938 8.14746C18.9388 7.31732 18.6936 6.50554 18.2332 5.81445C17.8083 5.17826 17.6532 4.39979 17.8018 3.64959C17.8967 3.16021 17.8967 2.6572 17.8018 2.16782C17.0141 2.43388 16.2724 2.82029 15.6031 3.3133C15.4766 3.40306 15.3317 3.46375 15.179 3.491C15.0262 3.51825 14.8693 3.5114 14.7194 3.47094C12.8209 2.93504 10.8109 2.93504 8.91233 3.47094C8.76251 3.5114 8.60559 3.51825 8.45281 3.491C8.30003 3.46375 8.15518 3.40306 8.02864 3.3133C7.35529 2.81458 6.60572 2.42777 5.80889 2.16782C5.70885 2.65669 5.70885 3.16072 5.80889 3.64959C5.9468 4.40924 5.78466 5.19271 5.35653 5.83547C4.89813 6.5314 4.65315 7.34591 4.65168 8.17898C4.65168 12.267 6.62946 13.3599 9.59614 13.7383C9.79026 13.7623 9.97383 13.84 10.1262 13.9625C10.2786 14.085 10.3938 14.2476 10.4588 14.4319C10.52 14.6107 10.5317 14.8027 10.4928 14.9876C10.454 15.1726 10.3659 15.3436 10.2379 15.4828C10.0333 15.7012 9.87619 15.9597 9.77661 16.2419C9.67702 16.5241 9.63706 16.8238 9.65926 17.1222V19.9491C9.65926 20.2278 9.54842 20.4951 9.35113 20.6922C9.15384 20.8893 8.88626 21 8.60725 21C8.32824 21 8.06065 20.8893 7.86336 20.6922C7.66607 20.4951 7.55524 20.2278 7.55524 19.9491V19.3501C6.52149 19.4688 5.47439 19.3305 4.50712 18.9473C3.53985 18.5641 2.68241 17.9479 2.01113 17.1537C1.66607 16.7716 1.25208 16.4579 0.790796 16.2289C0.656789 16.1944 0.530896 16.1339 0.420306 16.0508C0.309716 15.9677 0.216595 15.8636 0.146259 15.7446C0.0759239 15.6255 0.0297511 15.4938 0.0103776 15.3569C-0.00899589 15.22 -0.00119065 15.0807 0.0333474 14.9468C0.0678855 14.8129 0.12848 14.6872 0.211672 14.5767C0.294863 14.4662 0.399022 14.3732 0.518202 14.3029C0.637382 14.2327 0.769248 14.1866 0.906273 14.1672C1.0433 14.1478 1.18279 14.1556 1.3168 14.1901C2.12606 14.4846 2.84916 14.9758 3.42083 15.6194C4.47284 16.6703 5.52485 17.5951 7.52367 17.2167C7.48853 16.6525 7.57092 16.0871 7.76564 15.5563C5.59849 15.0099 2.50558 13.4545 2.50558 8.2C2.5028 6.95534 2.86885 5.73771 3.55759 4.70049C3.68552 4.50902 3.73451 4.27561 3.69435 4.04893C3.48177 2.91456 3.60234 1.74297 4.04151 0.675534C4.10119 0.533205 4.1915 0.405748 4.30605 0.302221C4.4206 0.198693 4.55656 0.121635 4.70428 0.0765192C5.06197 -0.0285711 6.34542 -0.238752 8.77557 1.3376C10.7428 0.864701 12.7943 0.864701 14.7615 1.3376C17.1917 -0.238752 18.4751 -0.0390801 18.8223 0.0765192C18.97 0.121635 19.106 0.198693 19.2205 0.302221C19.3351 0.405748 19.4254 0.533205 19.4851 0.675534C19.9251 1.74644 20.0457 2.92163 19.8322 4.05944C19.8107 4.16196 19.8098 4.26774 19.8297 4.37059C19.8496 4.47344 19.8898 4.5713 19.9479 4.65846C20.6387 5.69865 21.0048 6.92024 21 8.16847C21 13.4966 17.9281 15.0414 15.7399 15.5248C15.9327 16.0887 16.0113 16.6853 15.9713 17.2798V19.9491C15.9718 20.2172 15.8697 20.4754 15.6858 20.6708C15.502 20.8661 15.2504 20.9839 14.9824 21Z"
    fill="black"
  />
</svg>