<svg
  width="22"
  height="20"
  viewBox="0 0 22 20"
  fill="none"
  xmlns="http://www.w3.org/2000/svg"
>
  <path
    fill-rule="evenodd"
    clip-rule="evenodd"
    d="M6.77073 17.9892L6.81177 17.9909C9.73526 18.111 12.5956 17.0422 14.7677 15.0019C16.9415 12.96 18.2495 10.1093 18.3902 7.06736L18.4198 6.42915L18.8138 5.92626C19.2798 5.33161 19.6376 4.65417 19.8695 3.92691C19.5317 4.00925 19.1793 4.02938 18.8294 3.98338C18.2519 3.90748 17.7164 3.6562 17.2904 3.27007L17.2167 3.20323L17.1499 3.1294C16.8363 2.78241 16.4611 2.50585 16.0478 2.31326C15.6347 2.12074 15.1903 2.01531 14.7403 2.00155C14.2903 1.98779 13.8411 2.06588 13.4183 2.23249C12.9954 2.39913 12.6058 2.6517 12.2734 2.97803L12.2678 2.98355L12.2621 2.98903C11.5932 3.63545 11.1894 4.53548 11.1529 5.49909L11.0715 7.64679L8.93524 7.41138C7.49146 7.25229 6.09664 6.79347 4.8359 6.06505C3.8208 5.47857 2.91045 4.72765 2.13877 3.84491C1.97433 5.41309 2.17744 7.00152 2.7339 8.47577C3.36192 10.1396 4.41488 11.5918 5.77523 12.6823L7.98856 14.4565L5.57396 15.9452C4.6513 16.5141 3.64584 16.9278 2.59627 17.1713C3.8831 17.6979 5.25453 17.9756 6.64158 17.9892H6.77073ZM6.63218 19.9892C4.66853 19.9715 2.73327 19.5064 0.966539 18.6275C0.641555 18.471 0.373973 18.212 0.202963 17.8883C0.0319523 17.5646 -0.0335049 17.1933 0.0161743 16.8287C0.0702042 16.4616 0.235961 16.1215 0.48978 15.8567C0.7436 15.592 1.07251 15.4163 1.42954 15.3546C1.79101 15.3052 2.14795 15.2308 2.49801 15.1324C3.20828 14.9326 3.89023 14.6338 4.52432 14.2428C3.97887 13.8056 3.47508 13.3208 3.01786 12.7954C2.09747 11.7376 1.36577 10.5147 0.862753 9.18204C0.109853 7.18735 -0.102681 5.02098 0.247673 2.91251C0.295176 2.57854 0.435267 2.26559 0.651272 2.01091C0.867277 1.75622 1.1501 1.57053 1.46609 1.47592C1.77352 1.37693 2.10253 1.3727 2.41228 1.46376C2.72202 1.55481 2.99887 1.73714 3.20843 1.9881C3.91999 2.94472 4.81417 3.74268 5.83644 4.33331C6.2671 4.58213 6.71668 4.79196 7.18005 4.96109C7.81658 5.19344 8.47912 5.34901 9.1543 5.42342C9.16482 5.14555 9.19535 4.87058 9.24498 4.60052C9.45824 3.44016 10.0243 2.37039 10.8723 1.55087C11.3942 1.03842 12.0105 0.637592 12.6851 0.371757C13.3596 0.105921 14.0791 -0.0196084 14.8014 0.00248242C15.5238 0.0245732 16.2347 0.193843 16.8926 0.500427C17.5505 0.807012 18.1423 1.24478 18.6336 1.78822C18.7616 1.90423 18.9206 1.97817 19.09 2.00044C19.2595 2.02271 19.4316 1.9923 19.584 1.91314C19.8745 1.77267 20.1979 1.71979 20.5167 1.76067C20.8354 1.80156 21.1362 1.93452 21.384 2.14405C21.6318 2.35359 21.8163 2.63105 21.9162 2.94406C22.016 3.25707 22.0269 3.59273 21.9477 3.91188C21.6667 5.09877 21.1342 6.20766 20.3881 7.15981C20.2237 10.7135 18.6956 14.0564 16.137 16.4597C13.5784 18.863 10.1969 20.1317 6.72965 19.9892H6.63218Z"
    fill="black"
  />
</svg>