<svg width="21" height="22" viewBox="0 0 21 22" fill="none" xmlns="http://www.w3.org/2000/svg">
<path d="M14.9824 21.9778C14.7034 21.9778 14.4358 21.8671 14.2386 21.67C14.0413 21.4729 13.9304 21.2056 13.9304 20.9269V18.1945C13.9631 17.8802 13.9294 17.5626 13.8316 17.2621C13.7337 16.9616 13.5739 16.685 13.3623 16.45C13.2314 16.3081 13.142 16.1329 13.1042 15.9437C13.0663 15.7544 13.0813 15.5584 13.1476 15.3771C13.2139 15.1958 13.3289 15.0363 13.48 14.9159C13.631 14.7956 13.8124 14.7192 14.0041 14.695C16.571 14.3903 18.938 13.5706 18.938 9.12524C18.9388 8.29511 18.6936 7.48332 18.2332 6.79223C17.8083 6.15605 17.6532 5.37758 17.8018 4.62737C17.8967 4.13799 17.8967 3.63498 17.8018 3.1456C17.0141 3.41166 16.2724 3.79808 15.6031 4.29108C15.4766 4.38085 15.3317 4.44153 15.179 4.46878C15.0262 4.49604 14.8693 4.48919 14.7194 4.44872C12.8209 3.91282 10.8109 3.91282 8.91233 4.44872C8.76251 4.48919 8.60559 4.49604 8.45281 4.46878C8.30003 4.44153 8.15518 4.38085 8.02864 4.29108C7.35529 3.79237 6.60572 3.40556 5.80889 3.1456C5.70885 3.63447 5.70885 4.1385 5.80889 4.62737C5.9468 5.38702 5.78466 6.1705 5.35653 6.81325C4.89813 7.50918 4.65315 8.32369 4.65168 9.15676C4.65168 13.2448 6.62946 14.3377 9.59614 14.716C9.79026 14.7401 9.97383 14.8178 10.1262 14.9403C10.2786 15.0628 10.3938 15.2253 10.4588 15.4096C10.52 15.5885 10.5317 15.7805 10.4928 15.9654C10.454 16.1503 10.3659 16.3214 10.2379 16.4605C10.0333 16.679 9.87619 16.9375 9.77661 17.2197C9.67702 17.5019 9.63706 17.8016 9.65926 18.1V20.9269C9.65926 21.2056 9.54842 21.4729 9.35113 21.67C9.15384 21.8671 8.88626 21.9778 8.60725 21.9778C8.32824 21.9778 8.06065 21.8671 7.86336 21.67C7.66607 21.4729 7.55524 21.2056 7.55524 20.9269V20.3279C6.52149 20.4466 5.47439 20.3082 4.50712 19.925C3.53985 19.5418 2.68241 18.9257 2.01113 18.1315C1.66607 17.7494 1.25208 17.4357 0.790796 17.2067C0.656789 17.1722 0.530896 17.1117 0.420306 17.0285C0.309716 16.9454 0.216595 16.8414 0.146259 16.7223C0.0759238 16.6033 0.0297511 16.4716 0.0103776 16.3347C-0.00899589 16.1978 -0.00119065 16.0584 0.0333474 15.9246C0.0678855 15.7907 0.12848 15.665 0.211672 15.5545C0.294863 15.444 0.399022 15.351 0.518202 15.2807C0.637382 15.2105 0.769248 15.1643 0.906273 15.145C1.0433 15.1256 1.18279 15.1334 1.3168 15.1679C2.12606 15.4624 2.84916 15.9536 3.42083 16.5972C4.47284 17.6481 5.52485 18.5729 7.52367 18.1945C7.48853 17.6303 7.57092 17.0649 7.76564 16.5341C5.59849 15.9876 2.50558 14.4323 2.50558 9.17778C2.5028 7.93313 2.86885 6.71549 3.55759 5.67828C3.68552 5.48681 3.73451 5.25339 3.69435 5.02672C3.48177 3.89234 3.60234 2.72076 4.04151 1.65332C4.10119 1.51099 4.1915 1.38353 4.30605 1.28C4.4206 1.17648 4.55656 1.09942 4.70428 1.0543C5.06197 0.949212 6.34542 0.739032 8.77557 2.31539C10.7428 1.84248 12.7943 1.84248 14.7615 2.31539C17.1917 0.739032 18.4751 0.938703 18.8223 1.0543C18.97 1.09942 19.106 1.17648 19.2205 1.28C19.3351 1.38353 19.4254 1.51099 19.4851 1.65332C19.9251 2.72422 20.0457 3.89942 19.8322 5.03723C19.8107 5.13974 19.8098 5.24552 19.8297 5.34837C19.8496 5.45122 19.8898 5.54908 19.9479 5.63624C20.6387 6.67643 21.0048 7.89802 21 9.14626C21 14.4743 17.9281 16.0192 15.7399 16.5026C15.9327 17.0665 16.0113 17.663 15.9713 18.2576V20.9269C15.9718 21.195 15.8697 21.4532 15.6858 21.6485C15.502 21.8439 15.2504 21.9617 14.9824 21.9778Z" fill="black"/>
</svg>
