<svg width="22" height="20" viewBox="0 0 22 20" fill="none" xmlns="http://www.w3.org/2000/svg">
<path d="M6.72965 19.9892H6.63218C4.66853 19.9715 2.73328 19.5064 0.96654 18.6275C0.641556 18.471 0.373973 18.212 0.202962 17.8883C0.0319519 17.5646 -0.0335049 17.1933 0.0161743 16.8287C0.0702043 16.4616 0.235961 16.1215 0.489781 15.8567C0.743601 15.592 1.07251 15.4163 1.42954 15.3546C2.52442 15.2049 3.57771 14.8265 4.52432 14.2428C2.88087 12.9254 1.61565 11.1767 0.862754 9.18204C0.109854 7.18735 -0.102681 5.02098 0.247674 2.91251C0.295177 2.57854 0.435267 2.26559 0.651272 2.01091C0.867277 1.75622 1.1501 1.57053 1.46609 1.47592C1.77352 1.37693 2.10253 1.3727 2.41228 1.46376C2.72202 1.55481 2.99887 1.73714 3.20843 1.9881C3.91999 2.94472 4.81417 3.74268 5.83644 4.33331C6.8587 4.92394 7.98762 5.29485 9.1543 5.42342C9.21003 3.95167 9.82692 2.56113 10.8723 1.55087C11.3942 1.03842 12.0105 0.637592 12.6851 0.371756C13.3596 0.105921 14.0791 -0.0196084 14.8014 0.00248243C15.5238 0.0245732 16.2347 0.193843 16.8926 0.500427C17.5505 0.807012 18.1423 1.24478 18.6336 1.78822C18.7616 1.90423 18.9206 1.97817 19.09 2.00044C19.2595 2.02271 19.4316 1.9923 19.584 1.91314C19.8745 1.77267 20.198 1.71978 20.5167 1.76067C20.8354 1.80156 21.1362 1.93452 21.384 2.14405C21.6318 2.35359 21.8163 2.63105 21.9162 2.94406C22.016 3.25707 22.0269 3.59273 21.9477 3.91188C21.6667 5.09877 21.1342 6.20766 20.3881 7.15981C20.2237 10.7135 18.6956 14.0564 16.137 16.4597C13.5784 18.8629 10.1969 20.1317 6.72965 19.9892ZM6.72965 17.4908H6.82713C8.24374 17.5407 9.65594 17.3019 10.9818 16.788C12.3077 16.2742 13.521 15.4957 14.5512 14.4975C15.5814 13.4994 16.4082 12.3015 16.9834 10.9733C17.5587 9.64506 17.8711 8.21299 17.9025 6.76007C17.9227 6.36189 18.0828 5.98466 18.3534 5.69824C18.6505 5.31254 18.904 4.89345 19.1088 4.44903C18.6698 4.44989 18.2357 4.35575 17.8346 4.17278C17.4336 3.98981 17.0748 3.72212 16.7816 3.38721C16.4997 3.10058 16.1648 2.8745 15.7966 2.72221C15.4283 2.56991 15.0342 2.49446 14.6372 2.50027C14.2362 2.48964 13.8371 2.56031 13.4628 2.70823C13.0886 2.85615 12.7465 3.0784 12.4562 3.36222C12.0646 3.74323 11.7774 4.22301 11.6235 4.75355C11.4695 5.28408 11.4542 5.84677 11.579 6.38531L11.8957 7.8094L10.4702 7.90934C9.00943 8.03147 7.54022 7.8266 6.16433 7.30892C4.78843 6.79124 3.53872 5.97313 2.50175 4.91124C2.45727 6.55569 2.8585 8.18057 3.66082 9.60523C4.46314 11.0299 5.63511 12.1985 7.04644 12.9811L8.20394 13.6557L7.43634 14.78C6.60622 15.8962 5.46882 16.7316 4.17098 17.1785C5.00354 17.3924 5.85918 17.4973 6.71747 17.4908H6.72965Z" fill="black"/>
</svg>
